<?xml version="1.0" encoding="UTF-8" standalone="no"?><!DOCTYPE svg PUBLIC "-//W3C//DTD SVG 1.1//EN" "http://www.w3.org/Graphics/SVG/1.1/DTD/svg11.dtd"><svg width="100%" height="100%" viewBox="0 0 186 56" version="1.1" xmlns="http://www.w3.org/2000/svg" xmlns:xlink="http://www.w3.org/1999/xlink" xml:space="preserve" xmlns:serif="http://www.serif.com/" style="fill-rule:evenodd;clip-rule:evenodd;stroke-linejoin:round;stroke-miterlimit:2;"><path d="M45.07,13.1c0,-2.245 1.819,-4.064 4.064,-4.064l32.275,0c2.244,0 4.063,1.819 4.063,4.064l0,32.275c0,2.244 -1.819,4.063 -4.063,4.063l-32.275,0c-2.245,0 -4.064,-1.819 -4.064,-4.063l0,-32.275" style="fill:#f6921e;fill-rule:nonzero;"/><path d="M65.305,54.646c-3.011,-7.436 -5.516,-15.237 -6.376,-23.234c-0.613,-8.035 2.441,-12.486 4.888,-19.693c0.727,-2.279 0.882,-4.804 1.742,-6.997c0.113,-0.304 0.353,-0.84 0.684,-0.967c0.423,-0.162 0.473,0.514 0.495,0.783c-0,2.85 -1.665,5.304 -3.14,7.59c-4.345,6.059 -7.744,10.898 -6.721,19.222c1.65,8.646 4.987,16.362 8.766,24.248l-0.338,-0.952m0.282,0.647l-0.966,-3.046c-1.868,-5.911 -8.866,-32.324 2.025,-33.275c1.092,-0.095 6.341,0.155 6.363,-1.254c-1.917,-0.095 -8.85,-2.086 -8.719,-5.006c0.12,-2.56 4.062,-6.904 5.586,-10.84c0.945,-2.447 -1.679,-1.199 -2.54,-0.247c1.454,-1.699 3.852,-2.54 3.041,0.515c-0.747,2.794 -3.026,4.98 -2.738,7.872c0.276,2.772 3.958,4.325 5.721,6.285l0.219,0.309l0.156,0.276l0.063,0.255l-0.029,0.212c-0.051,0.265 -0.171,0.735 -0.522,1.034c-0.501,0.416 -2.476,0.571 -3.096,0.578c-9.276,0.411 -0.395,8.034 0.099,12.824c0.281,2.794 -2.371,5.602 -3.294,8.21c-1.27,3.583 -1.651,6.869 -1.651,10.763c0.05,1.509 0.141,3.019 0.282,4.535Z" style="fill:#231f20;"/><path d="M63.742,11.939l0.083,-0.163c0.571,-0.883 1.154,-1.79 1.648,-2.739l0.328,-0.001c-0.837,1.409 -1.465,2.677 -1.511,3.675c-0.131,2.92 6.803,4.911 8.719,5.006c-0.022,1.409 -5.27,1.156 -6.363,1.251c-9.629,0.842 -5.274,21.591 -2.844,30.47l-0.487,0c-2.089,-5.841 -3.723,-11.877 -4.385,-18.026c-0.608,-7.953 2.378,-12.393 4.812,-19.473" style="fill:#fff;"/><path d="M7.137,9.724c0,-0.407 0.331,-0.739 0.739,-0.739l3.325,0c0.409,0 0.739,0.332 0.739,0.739l-0,3.326c-0,0.407 -0.33,0.739 -0.739,0.739l-3.325,-0c-0.408,-0 -0.739,-0.332 -0.739,-0.739l0,-3.326" style="fill:#a6a8ab;fill-rule:nonzero;"/><path d="M14.259,9.724c0,-0.407 0.331,-0.739 0.739,-0.739l3.326,0c0.407,0 0.739,0.332 0.739,0.739l-0,3.326c-0,0.407 -0.332,0.739 -0.739,0.739l-3.326,-0c-0.408,-0 -0.739,-0.332 -0.739,-0.739l0,-3.326" style="fill:#a6a8ab;fill-rule:nonzero;"/><path d="M21.382,9.724c0,-0.407 0.33,-0.739 0.739,-0.739l3.325,0c0.408,0 0.739,0.332 0.739,0.739l-0,3.326c-0,0.407 -0.331,0.739 -0.739,0.739l-3.325,-0c-0.409,-0 -0.739,-0.332 -0.739,-0.739l0,-3.326" style="fill:#a6a8ab;fill-rule:nonzero;"/><path d="M28.505,9.724c0,-0.407 0.33,-0.739 0.739,-0.739l3.325,0c0.408,0 0.739,0.332 0.739,0.739l-0,3.326c-0,0.407 -0.331,0.739 -0.739,0.739l-3.325,-0c-0.409,-0 -0.739,-0.332 -0.739,-0.739l0,-3.326" style="fill:#a6a8ab;fill-rule:nonzero;"/><path d="M0.014,16.847c0,-0.407 0.331,-0.739 0.739,-0.739l3.326,0c0.408,0 0.738,0.332 0.738,0.739l-0,3.326c-0,0.407 -0.33,0.738 -0.738,0.738l-3.326,-0c-0.408,-0 -0.739,-0.331 -0.739,-0.738l0,-3.326" style="fill:#a6a8ab;fill-rule:nonzero;"/><path d="M7.137,16.847c0,-0.407 0.331,-0.739 0.739,-0.739l3.325,0c0.409,0 0.739,0.332 0.739,0.739l-0,3.326c-0,0.407 -0.33,0.738 -0.739,0.738l-3.325,-0c-0.408,-0 -0.739,-0.331 -0.739,-0.738l0,-3.326" style="fill:#a6a8ab;fill-rule:nonzero;"/><path d="M14.259,16.847c0,-0.407 0.331,-0.739 0.739,-0.739l3.326,0c0.407,0 0.739,0.332 0.739,0.739l-0,3.326c-0,0.407 -0.332,0.738 -0.739,0.738l-3.326,-0c-0.408,-0 -0.739,-0.331 -0.739,-0.738l0,-3.326" style="fill:#a6a8ab;fill-rule:nonzero;"/><path d="M21.382,16.847c0,-0.407 0.33,-0.739 0.739,-0.739l3.325,0c0.408,0 0.739,0.332 0.739,0.739l-0,3.326c-0,0.407 -0.331,0.738 -0.739,0.738l-3.325,-0c-0.409,-0 -0.739,-0.331 -0.739,-0.738l0,-3.326" style="fill:#a6a8ab;fill-rule:nonzero;"/><path d="M28.505,16.847c0,-0.407 0.33,-0.739 0.739,-0.739l3.325,0c0.408,0 0.739,0.332 0.739,0.739l-0,3.326c-0,0.407 -0.331,0.738 -0.739,0.738l-3.325,-0c-0.409,-0 -0.739,-0.331 -0.739,-0.738l0,-3.326" style="fill:#a6a8ab;fill-rule:nonzero;"/><path d="M35.627,16.847c-0,-0.407 0.331,-0.739 0.739,-0.739l3.324,0c0.409,0 0.741,0.332 0.741,0.739l-0,3.326c-0,0.407 -0.332,0.738 -0.741,0.738l-3.324,-0c-0.408,-0 -0.739,-0.331 -0.739,-0.738l-0,-3.326" style="fill:#a6a8ab;fill-rule:nonzero;"/><path d="M0.014,38.215c0,-0.408 0.331,-0.739 0.739,-0.739l3.326,-0c0.408,-0 0.738,0.331 0.738,0.739l-0,3.324c-0,0.409 -0.33,0.739 -0.738,0.739l-3.326,0c-0.408,0 -0.739,-0.33 -0.739,-0.739l0,-3.324" style="fill:#a6a8ab;fill-rule:nonzero;"/><path d="M7.137,38.215c0,-0.408 0.331,-0.739 0.739,-0.739l3.325,-0c0.409,-0 0.739,0.331 0.739,0.739l-0,3.324c-0,0.409 -0.33,0.739 -0.739,0.739l-3.325,0c-0.408,0 -0.739,-0.33 -0.739,-0.739l0,-3.324" style="fill:#a6a8ab;fill-rule:nonzero;"/><path d="M14.259,38.215c0,-0.408 0.331,-0.739 0.739,-0.739l3.326,-0c0.407,-0 0.739,0.331 0.739,0.739l-0,3.324c-0,0.409 -0.332,0.739 -0.739,0.739l-3.326,0c-0.408,0 -0.739,-0.33 -0.739,-0.739l0,-3.324" style="fill:#a6a8ab;fill-rule:nonzero;"/><path d="M21.382,38.215c0,-0.408 0.33,-0.739 0.739,-0.739l3.325,-0c0.408,-0 0.739,0.331 0.739,0.739l-0,3.324c-0,0.409 -0.331,0.739 -0.739,0.739l-3.325,0c-0.409,0 -0.739,-0.33 -0.739,-0.739l0,-3.324" style="fill:#a6a8ab;fill-rule:nonzero;"/><path d="M28.505,38.215c0,-0.408 0.33,-0.739 0.739,-0.739l3.325,-0c0.408,-0 0.739,0.331 0.739,0.739l-0,3.324c-0,0.409 -0.331,0.739 -0.739,0.739l-3.325,0c-0.409,0 -0.739,-0.33 -0.739,-0.739l0,-3.324" style="fill:#a6a8ab;fill-rule:nonzero;"/><path d="M35.627,38.215c-0,-0.408 0.331,-0.739 0.739,-0.739l3.324,-0c0.409,-0 0.741,0.331 0.741,0.739l-0,3.324c-0,0.409 -0.332,0.739 -0.741,0.739l-3.324,0c-0.408,0 -0.739,-0.33 -0.739,-0.739l-0,-3.324" style="fill:#a6a8ab;fill-rule:nonzero;"/><path d="M7.137,45.337c0,-0.408 0.331,-0.739 0.739,-0.739l3.325,-0c0.409,-0 0.739,0.331 0.739,0.739l-0,3.325c-0,0.408 -0.33,0.739 -0.739,0.739l-3.325,0c-0.408,0 -0.739,-0.331 -0.739,-0.739l0,-3.325" style="fill:#a6a8ab;fill-rule:nonzero;"/><path d="M14.259,45.337c0,-0.408 0.331,-0.739 0.739,-0.739l3.326,-0c0.407,-0 0.739,0.331 0.739,0.739l-0,3.325c-0,0.408 -0.332,0.739 -0.739,0.739l-3.326,0c-0.408,0 -0.739,-0.331 -0.739,-0.739l0,-3.325" style="fill:#a6a8ab;fill-rule:nonzero;"/><path d="M21.382,45.337c0,-0.408 0.33,-0.739 0.739,-0.739l3.325,-0c0.408,-0 0.739,0.331 0.739,0.739l-0,3.325c-0,0.408 -0.331,0.739 -0.739,0.739l-3.325,0c-0.409,0 -0.739,-0.331 -0.739,-0.739l0,-3.325" style="fill:#a6a8ab;fill-rule:nonzero;"/><path d="M28.505,45.337c0,-0.408 0.33,-0.739 0.739,-0.739l3.325,-0c0.408,-0 0.739,0.331 0.739,0.739l-0,3.325c-0,0.408 -0.331,0.739 -0.739,0.739l-3.325,0c-0.409,0 -0.739,-0.331 -0.739,-0.739l0,-3.325" style="fill:#a6a8ab;fill-rule:nonzero;"/><path d="M35.627,45.337c-0,-0.408 0.331,-0.739 0.739,-0.739l3.324,-0c0.409,-0 0.741,0.331 0.741,0.739l-0,3.325c-0,0.408 -0.332,0.739 -0.741,0.739l-3.324,0c-0.408,0 -0.739,-0.331 -0.739,-0.739l-0,-3.325" style="fill:#a6a8ab;fill-rule:nonzero;"/><path d="M0.014,45.337c0,-0.408 0.331,-0.739 0.739,-0.739l3.326,-0c0.408,-0 0.738,0.331 0.738,0.739l-0,3.325c-0,0.408 -0.33,0.739 -0.738,0.739l-3.326,0c-0.408,0 -0.739,-0.331 -0.739,-0.739l0,-3.325" style="fill:#a6a8ab;fill-rule:nonzero;"/><path d="M0.014,9.735c0,-0.408 0.331,-0.739 0.739,-0.739l3.326,-0c0.408,-0 0.738,0.331 0.738,0.739l-0,3.326c-0,0.407 -0.33,0.737 -0.738,0.737l-3.326,0c-0.408,0 -0.739,-0.33 -0.739,-0.737l0,-3.326" style="fill:#a6a8ab;fill-rule:nonzero;"/><path d="M35.627,9.735c-0,-0.408 0.331,-0.739 0.739,-0.739l3.324,-0c0.409,-0 0.741,0.331 0.741,0.739l-0,3.326c-0,0.407 -0.332,0.737 -0.741,0.737l-3.324,0c-0.408,0 -0.739,-0.33 -0.739,-0.737l-0,-3.326" style="fill:#a6a8ab;fill-rule:nonzero;"/><path d="M0.014,31.092c0,-0.408 0.331,-0.739 0.739,-0.739l3.326,-0c0.408,-0 0.738,0.331 0.738,0.739l-0,3.326c-0,0.407 -0.33,0.737 -0.738,0.737l-3.326,0c-0.408,0 -0.739,-0.33 -0.739,-0.737l0,-3.326" style="fill:#ec1c24;fill-rule:nonzero;"/><path d="M7.137,31.092c0,-0.408 0.331,-0.739 0.739,-0.739l3.325,-0c0.409,-0 0.739,0.331 0.739,0.739l-0,3.326c-0,0.407 -0.33,0.737 -0.739,0.737l-3.325,0c-0.408,0 -0.739,-0.33 -0.739,-0.737l0,-3.326" style="fill:#ec1c24;fill-rule:nonzero;"/><path d="M7.137,23.97c0,-0.409 0.331,-0.739 0.739,-0.739l3.325,0c0.409,0 0.739,0.33 0.739,0.739l-0,3.326c-0,0.407 -0.33,0.738 -0.739,0.738l-3.325,-0c-0.408,-0 -0.739,-0.331 -0.739,-0.738l0,-3.326" style="fill:#ec1c24;fill-rule:nonzero;"/><path d="M0.014,23.981c0,-0.409 0.331,-0.739 0.739,-0.739l3.326,-0c0.408,-0 0.738,0.33 0.738,0.739l-0,3.326c-0,0.407 -0.33,0.737 -0.738,0.737l-3.326,0c-0.408,0 -0.739,-0.33 -0.739,-0.737l0,-3.326" style="fill:#ec1c24;fill-rule:nonzero;"/><path d="M14.358,32.607c0.095,0.024 0.179,0.04 0.253,0.052c0.072,0.012 0.135,0.018 0.188,0.018c0.186,-0 0.347,-0.094 0.481,-0.282c0.136,-0.191 0.204,-0.436 0.204,-0.737c0,-0.207 -0.032,-0.398 -0.097,-0.574c-0.064,-0.18 -0.156,-0.312 -0.274,-0.4c-0.118,-0.089 -0.253,-0.133 -0.403,-0.133c-0.092,0 -0.208,0.022 -0.352,0.067l-0,1.989m-0,0.201l-0,1.392c-0,0.301 0.025,0.489 0.075,0.561c0.069,0.103 0.171,0.156 0.31,0.156l0.139,-0l-0,0.129l-1.561,0l-0,-0.129l0.136,-0c0.155,-0 0.265,-0.067 0.331,-0.199c0.036,-0.072 0.054,-0.245 0.054,-0.518l0,-3.089c0,-0.301 -0.025,-0.487 -0.072,-0.56c-0.07,-0.103 -0.175,-0.155 -0.313,-0.155l-0.136,-0l-0,-0.131l1.335,0c0.327,0 0.583,0.045 0.771,0.134c0.189,0.087 0.347,0.236 0.477,0.445c0.128,0.209 0.193,0.457 0.193,0.743c0,0.391 -0.098,0.709 -0.296,0.952c-0.196,0.245 -0.472,0.367 -0.83,0.367c-0.088,0 -0.183,-0.008 -0.285,-0.025c-0.102,-0.016 -0.212,-0.04 -0.328,-0.073Z" style="fill:#231f20;"/><path d="M17.989,34.917l-0,0.13l-1.561,0l-0,-0.13l0.128,-0c0.151,-0 0.26,-0.057 0.328,-0.173c0.043,-0.076 0.065,-0.256 0.065,-0.543l0,-3.089c0,-0.242 -0.012,-0.401 -0.035,-0.48c-0.018,-0.058 -0.055,-0.109 -0.111,-0.151c-0.078,-0.057 -0.16,-0.084 -0.247,-0.084l-0.128,-0l-0,-0.131l1.561,0l-0,0.131l-0.132,-0c-0.149,-0 -0.257,0.057 -0.326,0.172c-0.044,0.075 -0.066,0.257 -0.066,0.543l-0,3.089c-0,0.242 0.012,0.402 0.034,0.479c0.018,0.06 0.056,0.11 0.113,0.152c0.077,0.056 0.159,0.085 0.245,0.085l0.132,-0" style="fill:#231f20;fill-rule:nonzero;"/><path d="M19.273,30.526l0,1.891l0.801,-0c0.208,-0 0.347,-0.042 0.417,-0.124c0.093,-0.108 0.145,-0.298 0.156,-0.571l0.1,-0l-0,1.664l-0.1,0c-0.025,-0.233 -0.05,-0.382 -0.075,-0.448c-0.033,-0.082 -0.086,-0.147 -0.159,-0.193c-0.074,-0.048 -0.187,-0.072 -0.339,-0.072l-0.801,0l0,1.577c0,0.212 0.007,0.341 0.022,0.387c0.014,0.046 0.039,0.082 0.076,0.11c0.035,0.026 0.103,0.039 0.203,0.039l0.619,-0c0.205,-0 0.355,-0.019 0.448,-0.057c0.094,-0.037 0.183,-0.111 0.269,-0.221c0.111,-0.146 0.225,-0.366 0.341,-0.661l0.107,0l-0.313,1.199l-2.809,0l-0,-0.129l0.128,-0c0.087,-0 0.168,-0.028 0.245,-0.082c0.057,-0.037 0.096,-0.094 0.116,-0.169c0.022,-0.075 0.033,-0.229 0.033,-0.462l-0,-3.106c-0,-0.304 -0.024,-0.491 -0.071,-0.561c-0.064,-0.094 -0.172,-0.141 -0.323,-0.141l-0.128,-0l-0,-0.131l2.809,0l0.04,1.048l-0.106,-0c-0.036,-0.252 -0.079,-0.424 -0.126,-0.519c-0.045,-0.094 -0.111,-0.165 -0.2,-0.215c-0.073,-0.035 -0.199,-0.053 -0.379,-0.053l-1.001,0" style="fill:#231f20;fill-rule:nonzero;"/><path d="M23.737,35.047l-1.408,-4.023l0,3.195c0,0.294 0.024,0.477 0.073,0.55c0.066,0.099 0.171,0.148 0.314,0.148l0.129,-0l-0,0.13l-1.269,0l-0,-0.13l0.129,-0c0.155,-0 0.263,-0.061 0.328,-0.183c0.04,-0.075 0.06,-0.247 0.06,-0.515l-0,-3.125c-0,-0.211 -0.018,-0.363 -0.055,-0.458c-0.025,-0.068 -0.071,-0.124 -0.139,-0.169c-0.067,-0.046 -0.175,-0.07 -0.323,-0.07l-0,-0.131l1.032,0l1.323,3.741l1.301,-3.741l1.032,0l0,0.131l-0.127,-0c-0.155,-0 -0.266,0.06 -0.33,0.183c-0.039,0.075 -0.06,0.247 -0.06,0.514l0,3.125c0,0.294 0.025,0.477 0.077,0.55c0.065,0.099 0.171,0.148 0.313,0.148l0.127,-0l0,0.13l-1.548,0l0,-0.13l0.128,-0c0.156,-0 0.265,-0.061 0.328,-0.183c0.04,-0.075 0.06,-0.247 0.06,-0.515l-0,-3.195l-1.406,4.023l-0.089,0" style="fill:#231f20;fill-rule:nonzero;"/><path d="M28.342,30.415c-0.326,-0 -0.588,0.158 -0.785,0.475c-0.245,0.396 -0.368,0.973 -0.368,1.735c-0,0.78 0.127,1.382 0.382,1.802c0.195,0.32 0.453,0.479 0.774,0.479c0.342,-0 0.625,-0.175 0.847,-0.525c0.223,-0.35 0.336,-0.902 0.336,-1.658c0,-0.817 -0.123,-1.428 -0.368,-1.829c-0.197,-0.32 -0.471,-0.479 -0.818,-0.479m0.051,-0.258c0.473,-0 0.883,0.236 1.229,0.709c0.347,0.47 0.52,1.058 0.522,1.762c-0,0.727 -0.175,1.33 -0.526,1.81c-0.349,0.479 -0.772,0.719 -1.267,0.719c-0.503,-0 -0.925,-0.234 -1.267,-0.701c-0.34,-0.468 -0.511,-1.074 -0.511,-1.817c0,-0.759 0.197,-1.378 0.592,-1.858c0.342,-0.416 0.752,-0.624 1.228,-0.624Z" style="fill:#231f20;"/><path d="M30.283,30.266l0.989,0l2.228,3.586l0,-2.758c0,-0.293 -0.025,-0.476 -0.075,-0.55c-0.066,-0.098 -0.171,-0.147 -0.315,-0.147l-0.125,-0l-0,-0.131l1.267,0l0,0.131l-0.128,-0c-0.155,-0 -0.264,0.06 -0.328,0.183c-0.04,0.076 -0.059,0.247 -0.059,0.514l-0,4.031l-0.097,-0l-2.403,-3.85l-0,2.944c-0,0.294 0.025,0.477 0.072,0.55c0.068,0.099 0.174,0.148 0.315,0.148l0.13,-0l-0,0.13l-1.269,0l-0,-0.13l0.126,-0c0.155,-0 0.266,-0.061 0.33,-0.183c0.039,-0.075 0.059,-0.247 0.059,-0.515l0,-3.325c-0.105,-0.162 -0.186,-0.269 -0.242,-0.321c-0.054,-0.051 -0.133,-0.1 -0.239,-0.144c-0.051,-0.021 -0.131,-0.032 -0.236,-0.032l-0,-0.131" style="fill:#231f20;fill-rule:nonzero;"/><path d="M37.515,30.266l0.04,1.122l-0.102,-0c-0.02,-0.197 -0.046,-0.339 -0.081,-0.423c-0.055,-0.137 -0.129,-0.237 -0.223,-0.301c-0.091,-0.065 -0.211,-0.098 -0.362,-0.098l-0.514,-0l0,3.653c0,0.294 0.024,0.477 0.073,0.55c0.068,0.099 0.173,0.148 0.315,0.148l0.126,-0l-0,0.13l-1.546,0l-0,-0.13l0.129,-0c0.154,-0 0.263,-0.061 0.328,-0.183c0.039,-0.075 0.06,-0.247 0.06,-0.515l-0,-3.653l-0.439,-0c-0.17,-0 -0.291,0.016 -0.363,0.05c-0.093,0.043 -0.173,0.13 -0.239,0.256c-0.067,0.127 -0.106,0.3 -0.118,0.516l-0.102,-0l0.043,-1.122l2.975,0" style="fill:#231f20;fill-rule:nonzero;"/><path d="M38.843,30.526l0,1.891l0.801,-0c0.208,-0 0.347,-0.042 0.417,-0.124c0.093,-0.108 0.145,-0.298 0.156,-0.571l0.1,-0l-0,1.664l-0.1,0c-0.025,-0.233 -0.05,-0.382 -0.075,-0.448c-0.033,-0.082 -0.086,-0.147 -0.159,-0.193c-0.074,-0.048 -0.187,-0.072 -0.339,-0.072l-0.801,0l0,1.577c0,0.212 0.007,0.341 0.022,0.387c0.014,0.046 0.039,0.082 0.075,0.11c0.036,0.026 0.104,0.039 0.204,0.039l0.619,-0c0.205,-0 0.355,-0.019 0.448,-0.057c0.094,-0.037 0.183,-0.111 0.27,-0.221c0.11,-0.146 0.224,-0.366 0.341,-0.661l0.107,0l-0.314,1.199l-2.809,0l0,-0.129l0.128,-0c0.087,-0 0.168,-0.028 0.245,-0.082c0.058,-0.037 0.096,-0.094 0.117,-0.169c0.02,-0.075 0.032,-0.229 0.032,-0.462l-0,-3.106c-0,-0.304 -0.024,-0.491 -0.07,-0.561c-0.066,-0.094 -0.173,-0.141 -0.324,-0.141l-0.128,-0l0,-0.131l2.809,0l0.04,1.048l-0.106,-0c-0.036,-0.252 -0.079,-0.424 -0.125,-0.519c-0.046,-0.094 -0.112,-0.165 -0.202,-0.215c-0.072,-0.035 -0.198,-0.053 -0.378,-0.053l-1.001,0" style="fill:#231f20;fill-rule:nonzero;"/><path d="M14.532,26.034c0.04,0 0.073,0.001 0.103,0.004l0.071,-0c0.4,-0 0.701,-0.114 0.904,-0.341c0.204,-0.229 0.307,-0.518 0.307,-0.87c-0,-0.344 -0.083,-0.623 -0.249,-0.837c-0.162,-0.217 -0.379,-0.325 -0.65,-0.325c-0.12,-0 -0.281,0.026 -0.486,0.077l0,2.292m2.983,2.831l-1.122,0l-1.421,-2.576c-0.106,0.006 -0.191,0.009 -0.257,0.009l-0.086,-0c-0.032,-0.003 -0.063,-0.006 -0.097,-0.009l0,1.601c0,0.347 0.029,0.562 0.087,0.646c0.079,0.119 0.196,0.18 0.353,0.18l0.164,-0l0,0.149l-1.799,0l0,-0.149l0.158,-0c0.177,-0 0.304,-0.076 0.38,-0.228c0.044,-0.085 0.066,-0.283 0.066,-0.598l-0,-3.559c-0,-0.347 -0.029,-0.562 -0.087,-0.646c-0.081,-0.119 -0.201,-0.178 -0.359,-0.178l-0.158,-0l0,-0.151l1.529,-0c0.447,-0 0.775,0.044 0.985,0.131c0.213,0.083 0.392,0.241 0.54,0.47c0.148,0.228 0.222,0.5 0.222,0.818c-0,0.338 -0.084,0.632 -0.253,0.881c-0.168,0.248 -0.428,0.424 -0.781,0.528l0.868,1.58c0.198,0.364 0.368,0.605 0.51,0.724c0.143,0.118 0.328,0.194 0.558,0.228l-0,0.149Z" style="fill:#231f20;"/><path d="M18.785,23.658l-0,2.178l0.923,-0c0.239,-0 0.399,-0.048 0.48,-0.143c0.107,-0.125 0.168,-0.343 0.18,-0.658l0.114,-0l-0,1.917l-0.114,0c-0.029,-0.268 -0.059,-0.439 -0.087,-0.515c-0.037,-0.095 -0.099,-0.169 -0.183,-0.224c-0.085,-0.054 -0.215,-0.08 -0.39,-0.08l-0.923,-0l-0,1.815c-0,0.244 0.008,0.392 0.025,0.447c0.016,0.052 0.045,0.094 0.087,0.126c0.041,0.03 0.12,0.045 0.235,0.045l0.713,-0c0.236,-0 0.408,-0.021 0.517,-0.065c0.106,-0.043 0.21,-0.129 0.308,-0.256c0.129,-0.169 0.261,-0.422 0.394,-0.76l0.125,-0l-0.363,1.382l-3.236,-0l-0,-0.151l0.148,-0c0.099,-0 0.193,-0.031 0.282,-0.093c0.066,-0.044 0.11,-0.109 0.133,-0.196c0.025,-0.087 0.037,-0.264 0.037,-0.532l-0,-3.579c-0,-0.349 -0.027,-0.564 -0.08,-0.646c-0.075,-0.109 -0.198,-0.162 -0.372,-0.162l-0.148,-0l-0,-0.151l3.236,0l0.046,1.206l-0.121,0c-0.042,-0.289 -0.091,-0.488 -0.145,-0.596c-0.052,-0.109 -0.129,-0.192 -0.233,-0.249c-0.082,-0.04 -0.228,-0.06 -0.436,-0.06l-1.152,-0" style="fill:#231f20;fill-rule:nonzero;"/><path d="M25.226,23.231l0.108,1.74l-0.108,-0c-0.109,-0.434 -0.251,-0.761 -0.424,-0.981c-0.25,-0.316 -0.572,-0.475 -0.964,-0.475c-0.535,0 -0.941,0.278 -1.22,0.833c-0.233,0.469 -0.349,1.027 -0.349,1.674c-0,0.525 0.077,1.005 0.231,1.439c0.155,0.432 0.358,0.751 0.607,0.954c0.252,0.201 0.51,0.301 0.775,0.301c0.155,-0 0.304,-0.025 0.449,-0.078c0.144,-0.051 0.284,-0.127 0.418,-0.227l0,-1.593c0,-0.275 -0.016,-0.456 -0.049,-0.539c-0.031,-0.087 -0.081,-0.152 -0.149,-0.196c-0.067,-0.045 -0.184,-0.069 -0.353,-0.069l0,-0.155l1.626,0l-0,0.155l-0.078,-0c-0.161,-0 -0.272,0.071 -0.331,0.211c-0.042,0.1 -0.062,0.299 -0.062,0.593l-0,1.686c-0.238,0.169 -0.472,0.292 -0.703,0.371c-0.231,0.078 -0.489,0.118 -0.772,0.118c-0.811,-0 -1.426,-0.341 -1.848,-1.025c-0.316,-0.512 -0.474,-1.102 -0.474,-1.771c-0,-0.485 0.089,-0.95 0.266,-1.394c0.211,-0.527 0.5,-0.934 0.867,-1.218c0.308,-0.236 0.671,-0.354 1.091,-0.354c0.152,0 0.291,0.017 0.415,0.049c0.125,0.032 0.303,0.104 0.532,0.215c0.116,0.057 0.194,0.085 0.233,0.085c0.039,0 0.072,-0.022 0.098,-0.068c0.03,-0.049 0.047,-0.143 0.054,-0.281l0.114,0" style="fill:#231f20;"/><path d="M27.871,28.716l-0,0.149l-1.799,0l-0,-0.149l0.148,-0c0.174,-0 0.299,-0.067 0.378,-0.2c0.049,-0.087 0.074,-0.295 0.074,-0.625l-0,-3.56c-0,-0.278 -0.013,-0.462 -0.041,-0.552c-0.02,-0.068 -0.063,-0.126 -0.127,-0.175c-0.09,-0.064 -0.185,-0.097 -0.284,-0.097l-0.148,-0l-0,-0.15l1.799,0l-0,0.15l-0.152,-0c-0.171,-0 -0.296,0.066 -0.375,0.199c-0.052,0.087 -0.077,0.295 -0.077,0.625l0,3.56c0,0.279 0.013,0.463 0.041,0.553c0.02,0.067 0.062,0.126 0.129,0.174c0.089,0.066 0.183,0.098 0.282,0.098l0.152,-0" style="fill:#231f20;fill-rule:nonzero;"/><path d="M30.287,23.528c-0.376,0 -0.677,0.182 -0.905,0.548c-0.283,0.455 -0.424,1.122 -0.424,2c-0,0.898 0.147,1.591 0.439,2.075c0.226,0.369 0.523,0.553 0.893,0.553c0.394,-0 0.72,-0.202 0.975,-0.605c0.258,-0.404 0.388,-1.041 0.388,-1.911c-0,-0.942 -0.142,-1.645 -0.425,-2.107c-0.227,-0.369 -0.54,-0.553 -0.941,-0.553m0.059,-0.297c0.545,0 1.017,0.272 1.415,0.816c0.4,0.542 0.601,1.219 0.601,2.032c-0,0.837 -0.201,1.532 -0.604,2.084c-0.402,0.553 -0.89,0.83 -1.462,0.83c-0.578,-0 -1.064,-0.27 -1.458,-0.81c-0.392,-0.538 -0.589,-1.235 -0.589,-2.092c-0,-0.874 0.226,-1.587 0.682,-2.141c0.394,-0.479 0.866,-0.719 1.415,-0.719Z" style="fill:#231f20;"/><path d="M32.522,23.357l1.14,0l2.567,4.132l0,-3.177c0,-0.338 -0.028,-0.55 -0.086,-0.634c-0.076,-0.114 -0.198,-0.17 -0.363,-0.17l-0.145,-0l0,-0.151l1.462,0l-0,0.151l-0.149,-0c-0.178,-0 -0.304,0.07 -0.378,0.21c-0.045,0.087 -0.069,0.285 -0.069,0.594l0,4.644l-0.11,-0l-2.77,-4.437l0,3.392c0,0.339 0.029,0.55 0.085,0.635c0.078,0.113 0.198,0.17 0.362,0.17l0.149,-0l-0,0.151l-1.462,-0l0,-0.151l0.145,-0c0.18,-0 0.307,-0.07 0.382,-0.212c0.045,-0.085 0.067,-0.284 0.067,-0.593l0,-3.83c-0.122,-0.188 -0.215,-0.31 -0.279,-0.371c-0.062,-0.059 -0.153,-0.114 -0.276,-0.166c-0.059,-0.024 -0.149,-0.036 -0.272,-0.036l0,-0.151" style="fill:#231f20;fill-rule:nonzero;"/><path d="M38.513,23.658l-0,2.178l0.923,-0c0.239,-0 0.399,-0.048 0.48,-0.143c0.107,-0.125 0.167,-0.343 0.18,-0.658l0.114,-0l-0,1.917l-0.114,0c-0.029,-0.268 -0.059,-0.439 -0.087,-0.515c-0.037,-0.095 -0.099,-0.169 -0.183,-0.224c-0.084,-0.054 -0.215,-0.08 -0.39,-0.08l-0.923,-0l-0,1.815c-0,0.244 0.008,0.392 0.025,0.447c0.017,0.052 0.045,0.094 0.087,0.126c0.041,0.03 0.12,0.045 0.235,0.045l0.712,-0c0.237,-0 0.41,-0.021 0.518,-0.065c0.107,-0.043 0.21,-0.129 0.309,-0.256c0.128,-0.169 0.26,-0.422 0.393,-0.76l0.125,-0l-0.363,1.382l-3.236,-0l-0,-0.151l0.148,-0c0.099,-0 0.193,-0.031 0.282,-0.093c0.066,-0.044 0.11,-0.109 0.133,-0.196c0.025,-0.087 0.037,-0.264 0.037,-0.532l-0,-3.579c-0,-0.349 -0.026,-0.564 -0.08,-0.646c-0.075,-0.109 -0.198,-0.162 -0.372,-0.162l-0.148,-0l-0,-0.151l3.236,0l0.047,1.206l-0.122,0c-0.042,-0.289 -0.091,-0.488 -0.145,-0.596c-0.052,-0.109 -0.129,-0.192 -0.232,-0.249c-0.082,-0.04 -0.229,-0.06 -0.436,-0.06l-1.153,-0" style="fill:#231f20;fill-rule:nonzero;"/><path d="M10.002,25.618l-0.282,-1.268c0,0 -0.114,-0.181 -0.261,-0.181l-6.961,-0c-0.148,-0 -0.264,0.181 -0.264,0.181l-0.282,1.268l1.268,0l-0.08,-0.583l2.254,-0l-0.281,0.663l1.731,-0l-0.282,-0.663l2.254,-0l-0.082,0.583l1.268,0" style="fill:#231f20;fill-rule:nonzero;"/><path d="M95.966,34.479l3.164,0c-0.917,-2.573 -1.456,-4.161 -1.611,-4.759c-0.224,0.847 -0.741,2.434 -1.553,4.759m3.453,1.096l-3.742,-0l-1.08,3.195l-1.474,-0l3.588,-10.253l1.735,0l3.619,10.253l-1.521,-0l-1.125,-3.195Z" style="fill:#231f20;"/><rect x="103.555" y="27.94" width="1.415" height="10.83" style="fill:#231f20;"/><path d="M108.651,34.54l-0,1.188c-0,0.592 0.204,1.091 0.615,1.497c0.417,0.399 0.916,0.601 1.5,0.601c0.71,0 1.271,-0.25 1.687,-0.752c0.416,-0.508 0.624,-1.19 0.624,-2.047c-0,-0.77 -0.207,-1.407 -0.617,-1.907c-0.411,-0.504 -0.956,-0.754 -1.635,-0.754c-0.436,-0 -0.835,0.127 -1.201,0.38c-0.366,0.248 -0.619,0.555 -0.76,0.918c-0.144,0.363 -0.213,0.653 -0.213,0.876m-1.416,7.242l-0,-7.954c-0,-0.988 -0.019,-1.796 -0.061,-2.42l1.262,0l0.076,1.278l0.03,0c0.613,-0.963 1.525,-1.446 2.738,-1.446c0.921,0 1.69,0.351 2.303,1.052c0.614,0.694 0.92,1.585 0.92,2.676c-0,1.212 -0.332,2.176 -0.996,2.896c-0.661,0.718 -1.483,1.072 -2.471,1.072c-0.502,0 -0.965,-0.1 -1.386,-0.302c-0.415,-0.204 -0.74,-0.492 -0.972,-0.867l-0.029,0l-0,4.015l-1.414,-0Z" style="fill:#231f20;"/><path d="M117.835,29.172c0,0.255 -0.083,0.467 -0.25,0.64c-0.168,0.173 -0.388,0.258 -0.662,0.258c-0.265,0 -0.48,-0.085 -0.648,-0.258c-0.166,-0.173 -0.25,-0.385 -0.25,-0.64c-0,-0.248 0.084,-0.458 0.25,-0.624c0.174,-0.172 0.394,-0.258 0.662,-0.258c0.26,0 0.472,0.086 0.641,0.258c0.172,0.166 0.257,0.376 0.257,0.624m-0.197,9.598l-1.414,-0l0,-7.361l1.414,0l0,7.361Z" style="fill:#231f20;"/><path d="M132.434,38.77l-0.297,-5.574c-0.079,-1.609 -0.133,-2.724 -0.158,-3.353c-0.35,1.144 -0.75,2.323 -1.195,3.535l-1.97,5.317l-1.078,-0c-1.268,-3.645 -2.012,-5.811 -2.236,-6.496c-0.218,-0.689 -0.445,-1.473 -0.684,-2.355c-0.073,1.91 -0.143,3.451 -0.214,4.624l-0.273,4.304l-1.338,0l0.716,-10.252l1.841,-0c1.276,3.534 2.008,5.592 2.197,6.174c0.186,0.583 0.402,1.31 0.646,2.175c0.316,-1.186 0.666,-2.293 1.059,-3.323l1.907,-5.026l1.825,-0l0.638,10.252l-1.386,0" style="fill:#231f20;fill-rule:nonzero;"/><path d="M139.947,36.259l-0,-1.218c-1.186,0 -2.008,0.144 -2.47,0.427c-0.462,0.285 -0.692,0.672 -0.692,1.169c0,0.392 0.114,0.699 0.341,0.921c0.233,0.219 0.54,0.327 0.92,0.327c0.537,-0 0.988,-0.166 1.353,-0.495c0.367,-0.332 0.548,-0.71 0.548,-1.131m1.384,-1.947l0,2.692c0,0.731 0.041,1.318 0.124,1.763l-1.294,0l-0.168,-0.942c-0.553,0.74 -1.327,1.11 -2.327,1.11c-0.699,-0 -1.26,-0.204 -1.68,-0.615c-0.421,-0.416 -0.63,-0.915 -0.63,-1.5c-0,-0.891 0.387,-1.573 1.163,-2.045c0.776,-0.47 1.908,-0.708 3.399,-0.708l0,-0.137c0,-0.521 -0.145,-0.927 -0.433,-1.215c-0.284,-0.295 -0.707,-0.441 -1.27,-0.441c-0.751,0 -1.419,0.188 -2.007,0.562l-0.32,-0.925c0.711,-0.448 1.558,-0.671 2.54,-0.671c0.959,0 1.682,0.265 2.166,0.792c0.491,0.526 0.737,1.287 0.737,2.28Z" style="fill:#231f20;"/><path d="M143.536,38.77l0,-5.02c0,-0.954 -0.021,-1.734 -0.06,-2.342l1.247,0l0.091,1.473c0.186,-0.518 0.472,-0.918 0.86,-1.209c0.385,-0.288 0.803,-0.434 1.253,-0.434c0.097,0 0.224,0.012 0.381,0.032l-0,1.337c-0.137,-0.03 -0.299,-0.044 -0.486,-0.044c-0.513,-0 -0.953,0.2 -1.323,0.599c-0.366,0.401 -0.546,0.972 -0.546,1.712l-0,3.893l-1.417,0" style="fill:#231f20;fill-rule:nonzero;"/><path d="M150.319,29.172c0,0.255 -0.083,0.467 -0.25,0.64c-0.169,0.173 -0.388,0.258 -0.662,0.258c-0.265,0 -0.479,-0.085 -0.648,-0.258c-0.166,-0.173 -0.25,-0.385 -0.25,-0.64c-0,-0.248 0.084,-0.458 0.25,-0.624c0.174,-0.172 0.394,-0.258 0.663,-0.258c0.259,0 0.471,0.086 0.64,0.258c0.172,0.166 0.257,0.376 0.257,0.624m-0.197,9.598l-1.414,-0l0,-7.361l1.414,0l0,7.361Z" style="fill:#231f20;"/><path d="M152.677,30.04l1.383,-0.411l-0,1.78l1.961,0l0,1.079l-1.961,0l-0,3.832c-0,0.513 0.081,0.884 0.242,1.112c0.169,0.223 0.431,0.334 0.791,0.334c0.33,-0 0.599,-0.03 0.808,-0.09l0.061,1.064c-0.35,0.13 -0.771,0.197 -1.263,0.197c-1.349,0 -2.021,-0.842 -2.021,-2.524l-0,-3.925l-1.157,0l-0,-1.079l1.157,0l-0,-1.369" style="fill:#231f20;fill-rule:nonzero;"/><path d="M157.879,30.04l1.384,-0.411l-0,1.78l1.96,0l0,1.079l-1.96,0l-0,3.832c-0,0.513 0.079,0.884 0.241,1.112c0.169,0.223 0.431,0.334 0.791,0.334c0.331,-0 0.6,-0.03 0.807,-0.09l0.062,1.064c-0.351,0.13 -0.771,0.197 -1.263,0.197c-1.349,0 -2.021,-0.842 -2.021,-2.524l-0,-3.925l-1.158,0l0,-1.079l1.158,0l-0,-1.369" style="fill:#231f20;fill-rule:nonzero;"/><path d="M164.4,29.172c0,0.255 -0.082,0.467 -0.25,0.64c-0.168,0.173 -0.388,0.258 -0.662,0.258c-0.263,0 -0.479,-0.085 -0.647,-0.258c-0.166,-0.173 -0.25,-0.385 -0.25,-0.64c-0,-0.248 0.084,-0.458 0.25,-0.624c0.173,-0.172 0.394,-0.258 0.662,-0.258c0.259,0 0.472,0.086 0.639,0.258c0.174,0.166 0.258,0.376 0.258,0.624m-0.197,9.598l-1.414,-0l0,-7.361l1.414,0l0,7.361Z" style="fill:#231f20;"/><path d="M166.471,38.77l0,-5.34c0,-0.817 -0.02,-1.49 -0.06,-2.021l1.232,0l0.106,1.2c0.547,-0.912 1.348,-1.369 2.402,-1.369c0.486,0 0.917,0.132 1.293,0.397c0.379,0.265 0.669,0.629 0.866,1.096c0.603,-0.996 1.445,-1.493 2.525,-1.493c0.729,0 1.33,0.279 1.803,0.831c0.471,0.553 0.707,1.36 0.707,2.425l0,4.275l-1.384,0l0,-4.107c0,-0.729 -0.141,-1.291 -0.425,-1.68c-0.278,-0.39 -0.679,-0.585 -1.202,-0.585c-0.451,-0 -0.854,0.173 -1.209,0.522c-0.352,0.345 -0.525,0.788 -0.525,1.331l-0,4.519l-1.383,0l-0,-4.351c-0,-0.624 -0.14,-1.114 -0.418,-1.473c-0.28,-0.367 -0.663,-0.548 -1.151,-0.548c-0.47,-0 -0.89,0.197 -1.254,0.592c-0.36,0.396 -0.54,0.856 -0.54,1.385l0,4.395l-1.383,0" style="fill:#231f20;fill-rule:nonzero;"/><path d="M180.386,34.358l3.999,0c0,-0.633 -0.164,-1.144 -0.494,-1.529c-0.323,-0.39 -0.788,-0.585 -1.392,-0.585c-0.572,0 -1.046,0.195 -1.422,0.585c-0.374,0.386 -0.605,0.896 -0.691,1.529m5.323,1.02l-5.339,-0c0.02,0.796 0.266,1.406 0.738,1.831c0.471,0.421 1.083,0.633 1.832,0.633c0.817,-0 1.532,-0.127 2.145,-0.38l0.243,0.988c-0.724,0.322 -1.581,0.485 -2.57,0.485c-1.145,-0 -2.056,-0.339 -2.737,-1.018c-0.68,-0.678 -1.019,-1.581 -1.019,-2.706c-0,-1.125 0.324,-2.069 0.973,-2.831c0.654,-0.759 1.531,-1.14 2.631,-1.14c1.015,0 1.792,0.339 2.335,1.019c0.542,0.675 0.814,1.502 0.814,2.478c-0.001,0.281 -0.017,0.492 -0.046,0.641Z" style="fill:#231f20;"/><path d="M94.757,23.452l1.977,0c-0.573,-1.61 -0.909,-2.601 -1.008,-2.975c-0.139,0.529 -0.461,1.52 -0.969,2.975m2.159,0.685l-2.339,-0l-0.673,1.996l-0.924,-0l2.244,-6.408l1.083,-0l2.262,6.408l-0.951,-0l-0.702,-1.996Z" style="fill:#231f20;"/><path d="M99.5,26.133l-0,-3.138c-0,-0.594 -0.014,-1.084 -0.039,-1.464l0.779,-0l0.058,0.923c0.118,-0.324 0.295,-0.575 0.536,-0.757c0.241,-0.182 0.504,-0.272 0.784,-0.272c0.061,0 0.139,0.007 0.238,0.022l-0,0.835c-0.084,-0.019 -0.187,-0.028 -0.304,-0.028c-0.32,0 -0.596,0.125 -0.827,0.376c-0.227,0.251 -0.341,0.606 -0.341,1.067l-0,2.434l-0.884,0" style="fill:#231f20;fill-rule:nonzero;"/><path d="M103.197,23.375l2.5,-0c0,-0.395 -0.102,-0.715 -0.309,-0.957c-0.203,-0.242 -0.493,-0.363 -0.869,-0.363c-0.359,-0 -0.656,0.121 -0.889,0.365c-0.234,0.241 -0.379,0.56 -0.433,0.955m3.328,0.636l-3.337,-0c0.013,0.499 0.167,0.879 0.461,1.146c0.294,0.263 0.676,0.395 1.145,0.395c0.511,-0 0.957,-0.079 1.342,-0.237l0.15,0.618c-0.452,0.202 -0.988,0.304 -1.606,0.304c-0.718,0 -1.287,-0.214 -1.71,-0.635c-0.424,-0.425 -0.638,-0.989 -0.638,-1.695c0,-0.703 0.205,-1.293 0.61,-1.765c0.409,-0.476 0.956,-0.716 1.644,-0.716c0.634,0 1.121,0.214 1.46,0.638c0.339,0.422 0.509,0.938 0.509,1.549c-0.002,0.175 -0.012,0.307 -0.03,0.398Z" style="fill:#231f20;"/><path d="M108.132,23.375l2.5,-0c-0,-0.395 -0.105,-0.715 -0.311,-0.957c-0.202,-0.242 -0.491,-0.363 -0.868,-0.363c-0.359,-0 -0.656,0.121 -0.889,0.365c-0.234,0.241 -0.379,0.56 -0.432,0.955m3.327,0.636l-3.338,-0c0.014,0.499 0.168,0.879 0.462,1.146c0.295,0.263 0.675,0.395 1.146,0.395c0.509,-0 0.957,-0.079 1.34,-0.237l0.152,0.618c-0.453,0.202 -0.989,0.304 -1.608,0.304c-0.716,0 -1.285,-0.214 -1.709,-0.635c-0.425,-0.425 -0.636,-0.989 -0.636,-1.695c-0,-0.703 0.202,-1.293 0.608,-1.765c0.409,-0.476 0.957,-0.716 1.645,-0.716c0.632,0 1.119,0.214 1.459,0.638c0.338,0.422 0.508,0.938 0.508,1.549c-0.002,0.175 -0.01,0.307 -0.029,0.398Z" style="fill:#231f20;"/><path d="M115.526,20.428l-0,2.435c0.166,0.051 0.402,0.076 0.714,0.076c0.513,-0 0.912,-0.119 1.197,-0.353c0.285,-0.236 0.427,-0.567 0.427,-0.989c-0,-0.394 -0.134,-0.698 -0.404,-0.912c-0.266,-0.216 -0.642,-0.322 -1.125,-0.322c-0.309,-0 -0.578,0.021 -0.809,0.065m-0.883,5.705l-0,-6.331c0.487,-0.088 1.049,-0.132 1.681,-0.132c0.809,0 1.413,0.174 1.816,0.522c0.405,0.346 0.608,0.801 0.608,1.369c-0,0.667 -0.232,1.183 -0.699,1.543c-0.467,0.36 -1.074,0.538 -1.83,0.538c-0.319,0 -0.551,-0.024 -0.693,-0.067l-0,2.556l-0.883,0l-0,0.002Z" style="fill:#231f20;"/><path d="M119.698,26.133l0,-3.138c0,-0.594 -0.014,-1.084 -0.039,-1.464l0.78,-0l0.058,0.923c0.117,-0.324 0.294,-0.575 0.536,-0.757c0.241,-0.182 0.503,-0.272 0.784,-0.272c0.06,0 0.139,0.007 0.237,0.022l0,0.835c-0.084,-0.019 -0.186,-0.028 -0.304,-0.028c-0.319,0 -0.595,0.125 -0.827,0.376c-0.227,0.251 -0.342,0.606 -0.342,1.067l0,2.434l-0.883,0" style="fill:#231f20;fill-rule:nonzero;"/><path d="M123.434,23.842c-0,0.504 0.133,0.921 0.404,1.249c0.271,0.328 0.606,0.489 1.013,0.489c0.415,0 0.761,-0.165 1.035,-0.494c0.28,-0.329 0.42,-0.755 0.42,-1.274c-0,-0.477 -0.129,-0.884 -0.385,-1.22c-0.253,-0.339 -0.6,-0.509 -1.041,-0.509c-0.447,0 -0.801,0.168 -1.061,0.504c-0.257,0.332 -0.385,0.751 -0.385,1.255m3.793,-0.058c-0,0.494 -0.105,0.928 -0.311,1.297c-0.205,0.371 -0.494,0.657 -0.865,0.857c-0.37,0.199 -0.771,0.299 -1.202,0.299c-0.672,0 -1.227,-0.218 -1.663,-0.657c-0.438,-0.441 -0.657,-1.01 -0.657,-1.71c-0,-0.745 0.224,-1.336 0.674,-1.777c0.453,-0.443 1.023,-0.667 1.711,-0.667c0.684,0 1.241,0.221 1.667,0.662c0.432,0.436 0.646,1.002 0.646,1.696Z" style="fill:#231f20;"/><path d="M128.481,20.677l0.865,-0.258l0,1.112l1.226,-0l0,0.675l-1.226,-0l0,2.395c0,0.322 0.051,0.553 0.153,0.694c0.105,0.139 0.27,0.211 0.495,0.211c0.204,0 0.373,-0.021 0.504,-0.058l0.036,0.667c-0.218,0.081 -0.48,0.123 -0.789,0.123c-0.842,0 -1.263,-0.526 -1.263,-1.578l0,-2.452l-0.722,0l0,-0.675l0.722,0l0,-0.856" style="fill:#231f20;fill-rule:nonzero;"/><path d="M132.008,23.375l2.5,-0c-0,-0.395 -0.105,-0.715 -0.311,-0.957c-0.202,-0.242 -0.491,-0.363 -0.868,-0.363c-0.359,-0 -0.656,0.121 -0.889,0.365c-0.234,0.241 -0.379,0.56 -0.432,0.955m3.326,0.636l-3.336,-0c0.013,0.499 0.166,0.879 0.461,1.146c0.295,0.263 0.676,0.395 1.146,0.395c0.51,-0 0.957,-0.079 1.34,-0.237l0.152,0.618c-0.453,0.202 -0.989,0.304 -1.607,0.304c-0.716,0 -1.286,-0.214 -1.709,-0.635c-0.424,-0.425 -0.638,-0.989 -0.638,-1.695c-0,-0.703 0.204,-1.293 0.609,-1.765c0.409,-0.476 0.957,-0.716 1.645,-0.716c0.633,0 1.12,0.214 1.46,0.638c0.337,0.422 0.508,0.938 0.508,1.549c-0.002,0.175 -0.011,0.307 -0.031,0.398Z" style="fill:#231f20;"/><path d="M136.608,20.677l0.865,-0.258l0,1.112l1.226,-0l0,0.675l-1.226,-0l0,2.395c0,0.322 0.051,0.553 0.153,0.694c0.105,0.139 0.27,0.211 0.494,0.211c0.206,0 0.374,-0.021 0.504,-0.058l0.037,0.667c-0.218,0.081 -0.48,0.123 -0.789,0.123c-0.842,0 -1.263,-0.526 -1.263,-1.578l0,-2.452l-0.722,0l-0,-0.675l0.722,0l0,-0.856" style="fill:#231f20;fill-rule:nonzero;"/><path d="M139.859,20.677l0.865,-0.258l-0,1.112l1.226,-0l0,0.675l-1.226,-0l-0,2.395c-0,0.322 0.051,0.553 0.152,0.694c0.105,0.139 0.27,0.211 0.494,0.211c0.206,0 0.375,-0.021 0.504,-0.058l0.038,0.667c-0.219,0.081 -0.482,0.123 -0.789,0.123c-0.842,0 -1.263,-0.526 -1.263,-1.578l0,-2.452l-0.722,0l-0,-0.675l0.722,0l0,-0.856" style="fill:#231f20;fill-rule:nonzero;"/><path d="M143.385,23.375l2.5,-0c0,-0.395 -0.102,-0.715 -0.309,-0.957c-0.202,-0.243 -0.493,-0.364 -0.868,-0.364c-0.359,-0 -0.656,0.121 -0.889,0.364c-0.235,0.243 -0.38,0.562 -0.434,0.957m3.327,0.636l-3.336,-0c0.013,0.499 0.166,0.879 0.461,1.146c0.295,0.263 0.677,0.395 1.145,0.395c0.51,-0 0.957,-0.079 1.341,-0.237l0.152,0.618c-0.453,0.202 -0.989,0.304 -1.607,0.304c-0.716,0 -1.285,-0.214 -1.711,-0.635c-0.423,-0.425 -0.637,-0.989 -0.637,-1.695c0,-0.703 0.205,-1.293 0.61,-1.765c0.409,-0.476 0.956,-0.716 1.644,-0.716c0.634,0 1.121,0.214 1.459,0.638c0.34,0.422 0.51,0.938 0.51,1.549c-0.002,0.175 -0.013,0.307 -0.031,0.398Z" style="fill:#231f20;"/></svg>